<?xml version="1.0" encoding="utf-8"?>
<svg data-name="Layer 1" width="819.07045" height="584" viewBox="0 0 819.07045 584" xmlns="http://www.w3.org/2000/svg">
  <path d="M 409.66 548.941 C 402.122 548.915 394.618 547.924 387.322 545.991 L 385.884 545.584 L 384.551 544.902 C 336.326 520.214 295.642 487.602 263.628 447.976 C 237.128 414.981 216.465 377.519 202.573 337.274 C 185.959 289.09 177.967 238.249 178.976 187.177 C 178.996 186.105 179.014 185.278 179.014 184.708 C 179.014 159.88 192.51 138.097 213.396 129.211 C 229.381 122.41 374.522 61.538 385.008 57.139 C 404.758 47.035 425.827 55.469 429.199 56.943 C 436.762 60.101 570.935 116.136 599.929 130.234 C 629.811 144.765 637.784 170.866 637.784 183.998 C 637.784 243.453 627.7 299.017 607.812 349.149 C 591.75 389.728 568.985 427.189 540.509 459.902 C 485.568 523.033 430.613 545.414 430.082 545.611 C 423.515 547.919 416.604 549.045 409.66 548.941 Z M 396.735 516.253 C 401.5 517.344 412.47 518.98 419.619 516.316 C 428.702 512.934 474.699 488.579 517.681 439.188 C 577.069 370.947 607.202 285.163 607.246 184.218 C 607.139 182.172 605.717 167.587 586.8 158.388 C 558.367 144.564 418.906 86.335 417.501 85.747 L 417.115 85.581 C 414.192 84.33 404.891 81.696 398.479 85.127 L 397.196 85.739 C 395.641 86.39 241.573 151.004 225.142 157.994 C 213.648 162.885 209.552 174.999 209.552 184.708 C 209.552 185.416 209.534 186.449 209.509 187.783 C 208.196 256.853 223.849 426.815 396.735 516.253 Z" fill="#3f3d56" style=""/>
  <path d="M 391.394 71.316 C 391.394 71.316 235.927 136.516 219.27 143.603 C 202.611 150.689 194.283 167.698 194.283 184.708 C 194.283 201.716 181.79 423.657 391.394 530.964 C 391.394 530.964 410.418 536.339 424.851 530.964 C 439.284 525.589 622.514 434.876 622.514 183.998 C 622.514 183.998 622.514 158.485 593.364 144.312 C 564.214 130.137 423.278 71.316 423.278 71.316 C 423.278 71.316 405.97 63.52 391.394 71.316 Z" fill="#4ac399" style=""/>
  <path d="M 408.052 122.341 L 408.052 470.161 C 408.052 470.161 251.195 393.063 252.584 190.377 L 408.052 122.341 Z" opacity="0.1" style=""/>
</svg>