<svg id="visual" viewBox="0 0 900 600" width="900" height="600" xmlns="http://www.w3.org/2000/svg" xmlns:xlink="http://www.w3.org/1999/xlink" version="1.1"><path d="M0 385L150 301L300 402L450 544L600 550L750 316L900 553L900 0L750 0L600 0L450 0L300 0L150 0L0 0Z" fill="#1b0a34"></path><path d="M0 232L150 284L300 227L450 473L600 467L750 266L900 349L900 0L750 0L600 0L450 0L300 0L150 0L0 0Z" fill="#290e43"></path><path d="M0 332L150 241L300 235L450 384L600 402L750 276L900 286L900 0L750 0L600 0L450 0L300 0L150 0L0 0Z" fill="#390f52"></path><path d="M0 293L150 394L300 242L450 273L600 164L750 279L900 394L900 0L750 0L600 0L450 0L300 0L150 0L0 0Z" fill="#4b0e60"></path><path d="M0 344L150 166L300 353L450 218L600 334L750 303L900 238L900 0L750 0L600 0L450 0L300 0L150 0L0 0Z" fill="#570c68"></path><path d="M0 147L150 200L300 200L450 147L600 147L750 234L900 209L900 0L750 0L600 0L450 0L300 0L150 0L0 0Z" fill="#570c68"></path><path d="M0 104L150 125L300 141L450 141L600 99L750 211L900 160L900 0L750 0L600 0L450 0L300 0L150 0L0 0Z" fill="#4b0e60"></path><path d="M0 76L150 75L300 83L450 85L600 72L750 102L900 195L900 0L750 0L600 0L450 0L300 0L150 0L0 0Z" fill="#390f52"></path><path d="M0 87L150 74L300 100L450 120L600 113L750 117L900 99L900 0L750 0L600 0L450 0L300 0L150 0L0 0Z" fill="#290e43"></path><path d="M0 87L150 37L300 69L450 23L600 48L750 72L900 12L900 0L750 0L600 0L450 0L300 0L150 0L0 0Z" fill="#1b0a34"></path></svg>