<svg id="visual" viewBox="0 0 900 450" width="900" height="450" xmlns="http://www.w3.org/2000/svg" xmlns:xlink="http://www.w3.org/1999/xlink" version="1.1"><path d="M371 450L517 375L404 300L402 225L377 150L239 75L521 0L900 0L900 75L900 150L900 225L900 300L900 375L900 450Z" fill="#181b22"></path><path d="M290 450L580 375L207 300L172 225L307 150L508 75L565 0L900 0L900 75L900 150L900 225L900 300L900 375L900 450Z" fill="#1e2631"></path><path d="M462 450L374 375L341 300L615 225L464 150L309 75L219 0L900 0L900 75L900 150L900 225L900 300L900 375L900 450Z" fill="#233240"></path><path d="M384 450L565 375L506 300L581 225L512 150L311 75L570 0L900 0L900 75L900 150L900 225L900 300L900 375L900 450Z" fill="#263f4f"></path><path d="M641 450L513 375L432 300L669 225L382 150L643 75L379 0L900 0L900 75L900 150L900 225L900 300L900 375L900 450Z" fill="#274d5d"></path><path d="M568 450L675 375L557 300L694 225L714 150L469 75L548 0L900 0L900 75L900 150L900 225L900 300L900 375L900 450Z" fill="#275b6a"></path><path d="M688 450L766 375L550 300L566 225L598 150L627 75L750 0L900 0L900 75L900 150L900 225L900 300L900 375L900 450Z" fill="#276a76"></path><path d="M651 450L643 375L794 300L743 225L713 150L714 75L749 0L900 0L900 75L900 150L900 225L900 300L900 375L900 450Z" fill="#2a7980"></path><path d="M717 450L741 375L838 300L681 225L824 150L770 75L802 0L900 0L900 75L900 150L900 225L900 300L900 375L900 450Z" fill="#318889"></path><path d="M879 450L820 375L776 300L811 225L796 150L883 75L781 0L900 0L900 75L900 150L900 225L900 300L900 375L900 450Z" fill="#3c978f"></path></svg>