<svg id="visual" viewBox="0 0 900 450" width="900" height="450" xmlns="http://www.w3.org/2000/svg" xmlns:xlink="http://www.w3.org/1999/xlink" version="1.1"><path d="M531 0L385 75L498 150L500 225L525 300L663 375L381 450L0 450L0 375L0 300L0 225L0 150L0 75L0 0Z" fill="#181b22"></path><path d="M612 0L322 75L695 150L730 225L595 300L394 375L337 450L0 450L0 375L0 300L0 225L0 150L0 75L0 0Z" fill="#192135"></path><path d="M440 0L528 75L561 150L287 225L438 300L593 375L683 450L0 450L0 375L0 300L0 225L0 150L0 75L0 0Z" fill="#1c2748"></path><path d="M518 0L337 75L396 150L321 225L390 300L591 375L332 450L0 450L0 375L0 300L0 225L0 150L0 75L0 0Z" fill="#212c5b"></path><path d="M261 0L389 75L470 150L233 225L520 300L259 375L523 450L0 450L0 375L0 300L0 225L0 150L0 75L0 0Z" fill="#2b306e"></path><path d="M334 0L227 75L345 150L208 225L188 300L433 375L354 450L0 450L0 375L0 300L0 225L0 150L0 75L0 0Z" fill="#3a3380"></path><path d="M214 0L136 75L352 150L336 225L304 300L275 375L152 450L0 450L0 375L0 300L0 225L0 150L0 75L0 0Z" fill="#4d3490"></path><path d="M251 0L259 75L108 150L159 225L189 300L188 375L153 450L0 450L0 375L0 300L0 225L0 150L0 75L0 0Z" fill="#63329f"></path><path d="M185 0L161 75L64 150L221 225L78 300L132 375L100 450L0 450L0 375L0 300L0 225L0 150L0 75L0 0Z" fill="#7c2cac"></path><path d="M23 0L82 75L126 150L91 225L106 300L19 375L121 450L0 450L0 375L0 300L0 225L0 150L0 75L0 0Z" fill="#961fb6"></path></svg>