<svg id="visual" viewBox="0 0 900 600" width="900" height="600" xmlns="http://www.w3.org/2000/svg" xmlns:xlink="http://www.w3.org/1999/xlink" version="1.1"><path d="M580 0L454 100L606 200L819 300L828 400L477 500L833 600L0 600L0 500L0 400L0 300L0 200L0 100L0 0Z" fill="#1c0d32"></path><path d="M351 0L428 100L343 200L712 300L703 400L402 500L525 600L0 600L0 500L0 400L0 300L0 200L0 100L0 0Z" fill="#28134b"></path><path d="M501 0L364 100L354 200L578 300L606 400L416 500L432 600L0 600L0 500L0 400L0 300L0 200L0 100L0 0Z" fill="#341965"></path><path d="M442 0L594 100L366 200L412 300L249 400L421 500L593 600L0 600L0 500L0 400L0 300L0 200L0 100L0 0Z" fill="#411f81"></path><path d="M518 0L251 100L533 200L330 300L504 400L458 500L360 600L0 600L0 500L0 400L0 300L0 200L0 100L0 0Z" fill="#482392"></path><path d="M223 0L303 100L302 200L223 300L223 400L353 500L316 600L0 600L0 500L0 400L0 300L0 200L0 100L0 0Z" fill="#482392"></path><path d="M158 0L190 100L214 200L214 300L150 400L319 500L243 600L0 600L0 500L0 400L0 300L0 200L0 100L0 0Z" fill="#411f81"></path><path d="M117 0L115 100L128 200L130 300L110 400L155 500L295 600L0 600L0 500L0 400L0 300L0 200L0 100L0 0Z" fill="#341965"></path><path d="M133 0L113 100L153 200L182 300L172 400L179 500L151 600L0 600L0 500L0 400L0 300L0 200L0 100L0 0Z" fill="#28134b"></path><path d="M134 0L59 100L105 200L37 300L75 400L110 500L20 600L0 600L0 500L0 400L0 300L0 200L0 100L0 0Z" fill="#1c0d32"></path></svg>